<svg xmlns="http://www.w3.org/2000/svg" viewBox="0 0 34 34"><defs><style>.cls-1{fill:#fff;}.cls-2{fill:#4337c9;}.cls-3{fill:#8396f8;}.cls-4{fill:#a6b4ff;}.cls-5{fill:#d2d7f9;}</style></defs><g id="Layer_2" data-name="Layer 2"><g id="Layer_1-2" data-name="Layer 1"><rect class="cls-1" width="34" height="34"/><rect class="cls-1" x="2" y="2" width="30" height="30" transform="translate(34) rotate(90)"/><path class="cls-2" d="M25,6.69a7.82,7.82,0,0,0-1.32.2.89.89,0,0,1,0-.13c0-.65,0-1.31,0-2a3.14,3.14,0,0,0-.12-.92,2.64,2.64,0,0,0-5.16.74c0,1.49,0,3,0,4.48v.27a1,1,0,0,1-.23-.29c-.86-1.41-1.7-2.82-2.56-4.23a2.64,2.64,0,1,0-4.5,2.78c.71,1.2,1.43,2.39,2.15,3.58.12.22.25.43.38.64l.18.33H10.38a2.63,2.63,0,0,0-2.65,2.27.49.49,0,0,1-.21.3A1.44,1.44,0,0,0,6.75,16c0,3,0,6,0,9a7.14,7.14,0,0,0,4.86,6.59,17.3,17.3,0,0,0,1.76.41H17c.55-.15,1.11-.27,1.65-.46a6.82,6.82,0,0,0,2.93-2.31,13.59,13.59,0,0,0,2-3.62h0l0-.05v0c.42-1.3,3.37-14.85,3.65-15.94A2.34,2.34,0,0,0,25,6.69ZM15.63,23.55A1.4,1.4,0,0,1,14,23.31a5.75,5.75,0,0,1-2-4.18c0-.55,0-1.09-.06-1.66h.51c.7,0,1.41,0,2.11,0a1.33,1.33,0,0,1,1.2.53,2.77,2.77,0,0,1,.74,1.78c0,.83,0,1.66,0,2.48A1.41,1.41,0,0,1,15.63,23.55Z"/><g id="cujSPx.tif"><path class="cls-3" d="M23.05,23.5a12.21,12.21,0,0,1-.31,1.33,12,12,0,0,1-1.92,3.79l-.17.21a5.5,5.5,0,0,1-3.19,2.08A13,13,0,0,1,13,31,6.21,6.21,0,0,1,7.68,24.7c0-2.83,0-5.67,0-8.5,0-.52.21-.72.72-.66a2.94,2.94,0,0,1,1.95,1,3.28,3.28,0,0,1,.75,2.33,6.68,6.68,0,0,0,2.21,5.11,2.46,2.46,0,0,0,4.16-1.78c0-.65,0-1.31,0-2a7.08,7.08,0,0,0-.09-1.13,3.89,3.89,0,0,0-1.55-2.31,1.09,1.09,0,0,0-.57-.22H11.77a.42.42,0,0,1-.4-.22A3.72,3.72,0,0,0,9,14.7l-.35-.08a1.63,1.63,0,0,1,1.67-1.5c1.58,0,3.17,0,4.75,0a5,5,0,0,1,3.59,1.52c1.23,1.2,2.44,2.42,3.64,3.64a1.92,1.92,0,0,1,.44.72A10.33,10.33,0,0,1,23.05,23.5Z"/><path class="cls-4" d="M22.63,16.82c-1-1.8-2.07-3.6-3.12-5.39a1.7,1.7,0,0,1-.23-.88c0-2,0-3.94,0-5.91a1.7,1.7,0,0,1,3.4-.13c0,.12,0,.25,0,.38V16.81Z"/><path class="cls-3" d="M20.49,15.13l-1-1a6.2,6.2,0,0,0-4.38-1.93.49.49,0,0,1-.34-.19Q13.3,9.58,11.86,7.15a1.7,1.7,0,0,1,.55-2.38,1.66,1.66,0,0,1,2.34.58c1.94,3.23,3.85,6.47,5.77,9.7,0,0,0,0,0,0Z"/><path class="cls-5" d="M23.68,18.82a5.46,5.46,0,0,1,0-.57c0-3.26,0-6.52,0-9.78,0-.35.41-.73.89-.83a1.46,1.46,0,0,1,1.75,1.78c-.81,3.1-1.65,6.18-2.48,9.27l0,.13Z"/></g></g></g></svg>