<svg xmlns="http://www.w3.org/2000/svg" xmlns:xlink="http://www.w3.org/1999/xlink" viewBox="0 0 196.66 155.47"><defs><style>.cls-1{fill:#c989eb;}.cls-2{fill:url(#radial-gradient);}.cls-3{fill:#323232;}.cls-4{fill:#4337c9;}.cls-5{fill:#fff;}.cls-6{fill:#d2d7f9;}.cls-7{fill:#212121;}.cls-8{fill:#a6b4ff;}.cls-9{fill:#8396f8;}.cls-10{fill:#5e77ff;}</style><radialGradient id="radial-gradient" cx="72.06" cy="144.7" r="88.65" gradientTransform="translate(-58.58 178.97) rotate(-72.46) scale(1 0.79)" gradientUnits="userSpaceOnUse"><stop offset="0" stop-color="#a6b4ff"/><stop offset="1" stop-color="#fff" stop-opacity="0"/></radialGradient></defs><g id="Layer_2" data-name="Layer 2"><g id="Layer_1-2" data-name="Layer 1"><rect class="cls-1" x="98.33" width="34.82" height="154.65"/><rect class="cls-2" y="33.73" width="196.66" height="121.33"/><path class="cls-3" d="M162.42,155.47H32.13a.41.41,0,1,1,0-.82H162.42a.41.41,0,1,1,0,.82Z"/><path class="cls-4" d="M130.38,99.12a.41.41,0,0,1-.41-.41V69.46a.41.41,0,1,1,.82,0V98.71A.41.41,0,0,1,130.38,99.12Z"/><path class="cls-4" d="M51.57,99.12a.41.41,0,0,1-.41-.41V69.46a.42.42,0,0,1,.83,0V98.71A.41.41,0,0,1,51.57,99.12Z"/><path class="cls-4" d="M121.53,118.9a.41.41,0,0,1-.41-.41V57.54a.41.41,0,1,1,.82,0v61A.41.41,0,0,1,121.53,118.9Z"/><path class="cls-4" d="M112.68,145.53a.41.41,0,0,1-.41-.42V72a.41.41,0,0,1,.82,0v73.16A.41.41,0,0,1,112.68,145.53Z"/><path class="cls-4" d="M103.83,135.36a.41.41,0,0,1-.41-.41V57.66a.41.41,0,0,1,.82,0V135A.41.41,0,0,1,103.83,135.36Z"/><path class="cls-4" d="M95.74,155.26a.41.41,0,0,1-.41-.41V78.1a.41.41,0,0,1,.82,0v76.75A.41.41,0,0,1,95.74,155.26Z"/><path class="cls-4" d="M86.89,140.06a.42.42,0,0,1-.41-.42V65.37a.42.42,0,0,1,.83,0v74.27A.42.42,0,0,1,86.89,140.06Z"/><path class="cls-4" d="M78,144.56a.41.41,0,0,1-.41-.41V72a.42.42,0,0,1,.83,0v72.2A.41.41,0,0,1,78,144.56Z"/><path class="cls-4" d="M69.19,126.78a.41.41,0,0,1-.41-.41V56.92a.42.42,0,0,1,.83,0v69.45A.41.41,0,0,1,69.19,126.78Z"/><path class="cls-4" d="M60.35,139.34a.41.41,0,0,1-.42-.41V78.1a.42.42,0,0,1,.83,0v60.83A.41.41,0,0,1,60.35,139.34Z"/><polygon class="cls-5" points="44.39 119.3 65.57 106.55 42.54 94.65 44.39 119.3"/><path class="cls-3" d="M44,120l-2-26,24.35,12.57ZM43,95.36l1.76,23.24,20-12Z"/><circle class="cls-5" cx="133.15" cy="53.12" r="23.61"/><path class="cls-3" d="M133.15,77.15a24,24,0,1,1,24-24A24.06,24.06,0,0,1,133.15,77.15Zm0-47.23a23.21,23.21,0,1,0,23.2,23.2A23.23,23.23,0,0,0,133.15,29.92Z"/><path class="cls-5" d="M88.32,155.06a19.18,19.18,0,1,0-33,0Z"/><path class="cls-3" d="M88.55,155.47H55.06l-.12-.2a19.59,19.59,0,1,1,33.73,0Zm-33-.82H88.08a18.76,18.76,0,1,0-32.55,0Z"/><polygon class="cls-6" points="89.55 42.07 94.16 57.6 102.04 53.98 103.46 43.08 89.55 42.07"/><polygon class="cls-3" points="90.92 46.69 103.46 43.08 89.55 42.07 90.92 46.69"/><polygon class="cls-7" points="98.28 105.03 86.07 97.69 88.78 155.4 96.51 124.4 98.28 105.03"/><polygon class="cls-8" points="118.02 51.81 179.2 101.44 169.4 106.98 155.19 103.42 138.72 108.63 118.02 105.03 106.95 107.83 84.07 59.77 118.02 51.81"/><polygon class="cls-3" points="96.51 124.4 87.5 128.17 88.78 155.4 96.51 124.4"/><polygon class="cls-4" points="98.28 105.03 86.07 97.69 86.07 94.71 111.27 89.74 113.4 97.39 98.28 105.03"/><polygon class="cls-3" points="113.4 97.39 127.68 155.4 98.28 105.03 113.4 97.39"/><path class="cls-6" d="M86.07,94.71c-.72-3.41-2-34.94-2-34.94L94,54.37l8.31-2.55H118l-6.75,37.92Z"/><polygon class="cls-9" points="138.72 108.63 110.39 67.44 118.02 105.03 138.72 108.63"/><polygon class="cls-7" points="73.13 108.63 84.99 79.66 86.07 94.71 73.13 108.63"/><polygon class="cls-7" points="118.02 51.81 131.73 83.06 130.24 114.17 120.86 85.62 106.95 60.53 118.02 51.81"/><polygon class="cls-3" points="84.07 59.77 82.83 69.96 105.84 68.29 106.95 60.53 102.32 51.81 93.31 54.75 84.07 59.77"/><polygon class="cls-3" points="111.27 89.74 118.02 51.81 105.84 68.29 111.27 89.74"/><polygon class="cls-10" points="118.02 51.81 106.95 60.53 101.05 59.31 102.32 51.81 118.02 51.81"/><polygon class="cls-10" points="84.07 59.77 87.54 63.16 91.46 61.55 93.31 54.75 84.07 59.77"/><polygon class="cls-3" points="131.73 83.06 118.02 51.81 106.95 60.53 131.73 83.06"/><polygon class="cls-10" points="111.27 89.74 98.28 105.03 113.4 97.39 111.27 89.74"/><polygon class="cls-7" points="105.84 68.29 82.83 69.96 86.07 94.71 111.27 89.74 105.84 68.29"/><polygon class="cls-3" points="86.07 94.71 82.83 69.96 88.69 78.02 87.78 94.38 86.07 94.71"/><polygon class="cls-3" points="105.84 68.29 114.94 69.13 106.95 60.53 102.32 64.83 105.84 68.29"/><polygon class="cls-3" points="114.94 69.13 113.51 77.15 107.3 74.06 105.84 68.29 114.94 69.13"/><polygon class="cls-3" points="131.73 83.06 126.15 89.74 130.24 114.17 131.73 83.06"/><polygon class="cls-9" points="169.4 106.98 131.63 72.72 155.19 103.42 169.4 106.98"/><polygon class="cls-3" points="73.71 110.84 72.84 111.45 71.63 110.32 73.19 108.5 73.71 110.84"/><polygon class="cls-3" points="128.29 115.22 128.5 116.26 130.17 116.24 130.25 113.84 128.29 115.22"/></g></g></svg>