<svg xmlns="http://www.w3.org/2000/svg" xmlns:xlink="http://www.w3.org/1999/xlink" viewBox="0 0 971.34 806.35"><defs><style>.cls-1{fill:none;}.cls-2{isolation:isolate;}.cls-3{fill:#2c2a52;}.cls-4{clip-path:url(#clip-path);}.cls-5{opacity:0.75;mix-blend-mode:soft-light;}.cls-6{fill:url(#radial-gradient);}.cls-7{fill:url(#radial-gradient-2);}.cls-8{fill:url(#radial-gradient-3);}.cls-9{fill:url(#radial-gradient-4);}.cls-10{fill:url(#radial-gradient-5);}.cls-11{fill:url(#radial-gradient-6);}.cls-12{fill:url(#radial-gradient-7);}.cls-13{fill:url(#radial-gradient-8);}.cls-14{fill:url(#radial-gradient-9);}.cls-15{fill:url(#radial-gradient-10);}.cls-16{fill:url(#radial-gradient-11);}.cls-17{fill:url(#radial-gradient-12);}.cls-18{fill:url(#radial-gradient-13);}.cls-19{fill:url(#radial-gradient-14);}.cls-20{fill:url(#radial-gradient-15);}.cls-21{fill:url(#radial-gradient-16);}.cls-22{fill:url(#radial-gradient-17);}.cls-23{fill:url(#radial-gradient-18);}.cls-24{fill:url(#radial-gradient-19);}.cls-25{fill:url(#radial-gradient-20);}.cls-26{mix-blend-mode:overlay;}.cls-27{fill:#00121c;}.cls-28{fill:#0f0f11;}.cls-29{fill:url(#linear-gradient);}</style><clipPath id="clip-path" transform="translate(199.67 244.9)"><rect class="cls-1" width="572" height="316.56"/></clipPath><radialGradient id="radial-gradient" cx="297.85" cy="-63.78" r="175.39" gradientTransform="translate(191.89 253.81) scale(0.99 0.82)" gradientUnits="userSpaceOnUse"><stop offset="0"/><stop offset="1" stop-opacity="0"/></radialGradient><radialGradient id="radial-gradient-2" cx="207.41" cy="-56.4" r="180.57" xlink:href="#radial-gradient"/><radialGradient id="radial-gradient-3" cx="140.92" cy="-25.64" r="184.27" xlink:href="#radial-gradient"/><radialGradient id="radial-gradient-4" cx="89.79" cy="25.49" r="184.27" xlink:href="#radial-gradient"/><radialGradient id="radial-gradient-5" cx="59.03" cy="91.98" r="180.57" xlink:href="#radial-gradient"/><radialGradient id="radial-gradient-6" cx="51.65" cy="182.42" r="175.39" xlink:href="#radial-gradient"/><radialGradient id="radial-gradient-7" cx="59.03" cy="272.86" r="180.57" xlink:href="#radial-gradient"/><radialGradient id="radial-gradient-8" cx="89.79" cy="339.35" r="184.27" xlink:href="#radial-gradient"/><radialGradient id="radial-gradient-9" cx="140.92" cy="390.47" r="184.27" xlink:href="#radial-gradient"/><radialGradient id="radial-gradient-10" cx="207.41" cy="421.23" r="180.57" xlink:href="#radial-gradient"/><radialGradient id="radial-gradient-11" cx="297.85" cy="428.62" r="175.39" xlink:href="#radial-gradient"/><radialGradient id="radial-gradient-12" cx="388.29" cy="421.23" r="180.57" xlink:href="#radial-gradient"/><radialGradient id="radial-gradient-13" cx="454.78" cy="390.47" r="184.27" xlink:href="#radial-gradient"/><radialGradient id="radial-gradient-14" cx="505.9" cy="339.35" r="184.27" xlink:href="#radial-gradient"/><radialGradient id="radial-gradient-15" cx="536.66" cy="272.86" r="180.57" xlink:href="#radial-gradient"/><radialGradient id="radial-gradient-16" cx="544.05" cy="182.42" r="175.39" xlink:href="#radial-gradient"/><radialGradient id="radial-gradient-17" cx="536.66" cy="91.98" r="180.57" xlink:href="#radial-gradient"/><radialGradient id="radial-gradient-18" cx="505.9" cy="25.49" r="184.27" xlink:href="#radial-gradient"/><radialGradient id="radial-gradient-19" cx="454.78" cy="-25.64" r="184.27" xlink:href="#radial-gradient"/><radialGradient id="radial-gradient-20" cx="388.29" cy="-56.4" r="180.57" xlink:href="#radial-gradient"/><linearGradient id="linear-gradient" x1="485.67" y1="509.63" x2="485.67" y2="259.68" gradientUnits="userSpaceOnUse"><stop offset="0" stop-color="#2c2a52" stop-opacity="0"/><stop offset="0.44" stop-color="#1e1e30" stop-opacity="0.54"/><stop offset="1" stop-color="#131313"/></linearGradient></defs><g class="cls-2"><g id="Layer_2" data-name="Layer 2"><g id="Layer_1-2" data-name="Layer 1"><rect class="cls-3" x="199.67" y="244.9" width="572" height="316.56"/><g class="cls-4"><g class="cls-5"><polygon class="cls-6" points="485.67 403.18 515.46 0 455.88 0 485.67 403.18"/><polygon class="cls-7" points="485.67 403.18 363.93 12.09 307.25 27.38 485.67 403.18"/><polygon class="cls-8" points="485.67 403.18 224.3 62.46 176.1 91.54 485.67 403.18"/><polygon class="cls-9" points="485.67 403.18 110.27 146.19 75.24 186.2 485.67 403.18"/><polygon class="cls-10" points="485.67 403.18 32.98 255.06 14.56 302.11 485.67 403.18"/><polygon class="cls-11" points="485.67 403.18 0 378.44 0 427.91 485.67 403.18"/><polygon class="cls-12" points="485.67 403.18 14.56 504.24 32.98 551.28 485.67 403.18"/><polygon class="cls-13" points="485.67 403.18 75.24 620.15 110.27 660.16 485.67 403.18"/><polygon class="cls-14" points="485.67 403.18 176.1 714.81 224.3 743.89 485.67 403.18"/><polygon class="cls-15" points="485.67 403.18 307.25 778.97 363.93 794.26 485.67 403.18"/><polygon class="cls-16" points="485.67 403.18 455.88 806.35 515.46 806.35 485.67 403.18"/><polygon class="cls-17" points="485.67 403.18 607.42 794.26 664.09 778.97 485.67 403.18"/><polygon class="cls-18" points="485.67 403.18 747.04 743.89 795.24 714.81 485.67 403.18"/><polygon class="cls-19" points="485.67 403.18 861.07 660.16 896.1 620.15 485.67 403.18"/><polygon class="cls-20" points="485.67 403.18 938.36 551.28 956.78 504.24 485.67 403.18"/><polygon class="cls-21" points="485.67 403.18 971.34 427.91 971.34 378.44 485.67 403.18"/><polygon class="cls-22" points="485.67 403.18 956.78 302.11 938.36 255.06 485.67 403.18"/><polygon class="cls-23" points="485.67 403.18 896.1 186.2 861.07 146.19 485.67 403.18"/><polygon class="cls-24" points="485.67 403.18 795.24 91.54 747.04 62.46 485.67 403.18"/><polygon class="cls-25" points="485.67 403.18 664.09 27.38 607.42 12.09 485.67 403.18"/></g><g class="cls-26"><polygon class="cls-27" points="674 599.22 564.96 477 680.5 597.26 674 599.22"/><polygon class="cls-27" points="604.13 472.73 771.42 585.98 786.48 581.57 604.13 472.73"/><polygon class="cls-27" points="666.72 438.12 810.39 463.2 813.94 455.11 666.72 438.12"/><polygon class="cls-27" points="667.51 378.32 820.14 341.15 821.02 355.12 667.51 378.32"/><polygon class="cls-27" points="725.37 328.98 811.28 291.89 815.71 302.18 725.37 328.98"/><polygon class="cls-27" points="650.09 297.77 742.2 224.98 753.71 231.6 650.09 297.77"/><polygon class="cls-27" points="560.61 526.93 607.72 615.15 613.63 613.43 560.61 526.93"/><polygon class="cls-27" points="439.3 491.87 377.3 602.89 386.15 607.3 439.3 491.87"/><polygon class="cls-27" points="332.13 477 132.85 543.34 134.62 548.49 332.13 477"/><path class="cls-27" d="M103.23,275.65-2.16,333C1.38,335.21,103.23,275.65,103.23,275.65Z" transform="translate(199.67 244.9)"/><path class="cls-27" d="M519.5,213.81l83.9,18C602.35,234.73,519.5,213.81,519.5,213.81Z" transform="translate(199.67 244.9)"/><polygon class="cls-27" points="129.31 321.3 294.73 359.37 131.97 314.68 129.31 321.3"/><polygon class="cls-27" points="147.91 277.92 256.94 321.13 151.45 274.98 147.91 277.92"/><path class="cls-27" d="M174.58,32.78c-.4-1-35.43-42.15-35.43-42.15l7.09-.33Z" transform="translate(199.67 244.9)"/><polygon class="cls-27" points="472.26 278.98 468.72 229.97 469.61 230.05 472.26 278.98"/><polygon class="cls-27" points="639.16 269.5 674.92 230.98 675.92 231.72 639.16 269.5"/><polygon class="cls-27" points="743.08 391.39 825.79 384.98 825.76 386.6 743.08 391.39"/><polygon class="cls-27" points="441.41 515.29 414.47 583.56 412.05 582.58 441.41 515.29"/><polygon class="cls-27" points="266 460.01 180.06 477.27 180.02 475.04 266 460.01"/><polygon class="cls-27" points="372.67 526.93 325.18 586.4 320.74 585.33 372.67 526.93"/><polygon class="cls-27" points="321.89 262.32 282.5 224.73 285.19 224.74 321.89 262.32"/><polygon class="cls-27" points="550.99 283.88 570.05 236 574.61 236.5 550.99 283.88"/><polygon class="cls-27" points="400.23 269.5 375.08 227.02 377.47 228.04 400.23 269.5"/><polygon class="cls-27" points="255.76 359.37 172.28 344.85 173.28 342.77 255.76 359.37"/><polygon class="cls-27" points="728.13 349.24 803.98 331.97 804.34 333.57 728.13 349.24"/></g></g><polygon class="cls-28" points="687.67 409.82 655.66 399.19 654.36 377.89 620.81 372.38 625.18 389.06 613.62 385.21 569.65 376 574.49 402.31 484.64 441.56 477.15 456.72 529.02 441.56 555.09 456.72 581.41 454.2 596.97 465.93 615.93 454.2 628.3 446.55 631.48 454.2 631.87 455.14 676.02 561.46 668.93 490.02 685.31 494.28 682.26 458.11 681.57 454.2 682.7 446.02 690.27 452.2 694.33 518.16 716.79 463.99 687.67 409.82"/><rect class="cls-29" x="199.67" y="244.9" width="572" height="316.56"/></g></g></g></svg>