<svg xmlns="http://www.w3.org/2000/svg" xmlns:xlink="http://www.w3.org/1999/xlink" viewBox="0 0 260.38 161.19"><defs><style>.cls-1{fill:#c989eb;}.cls-2{fill:url(#radial-gradient);}.cls-3{fill:#323232;}.cls-4{fill:#4337c9;}.cls-5{fill:#212121;}.cls-6{fill:#d2d7f9;}.cls-7{fill:#6076fe;}.cls-8{fill:#a6b4ff;}.cls-9{fill:#8396f8;}.cls-10{fill:#fff;}</style><radialGradient id="radial-gradient" cx="123.47" cy="153.55" r="141.92" gradientTransform="matrix(0, -1, 0.89, 0, -8.29, 277.02)" gradientUnits="userSpaceOnUse"><stop offset="0" stop-color="#a6b4ff"/><stop offset="1" stop-color="#fff" stop-opacity="0"/></radialGradient></defs><g id="Layer_2" data-name="Layer 2"><g id="Layer_1-2" data-name="Layer 1"><rect class="cls-1" x="63.4" y="40.92" width="45.62" height="119.79"/><rect class="cls-2" width="260.38" height="160.64"/><path class="cls-3" d="M215.05,161.19H42.54a.55.55,0,0,1-.55-.55.54.54,0,0,1,.55-.54H215.05a.54.54,0,0,1,.54.54A.55.55,0,0,1,215.05,161.19Z"/><path class="cls-4" d="M171.35,90.66a.54.54,0,0,1-.54-.54V30.83a.54.54,0,0,1,.54-.54.55.55,0,0,1,.55.54V90.12A.55.55,0,0,1,171.35,90.66Z"/><path class="cls-4" d="M182.7,76.65h0a.54.54,0,0,1-.55-.54V48.87a.55.55,0,0,1,.55-.55h0a.55.55,0,0,1,.54.55V76.11A.54.54,0,0,1,182.7,76.65Z"/><path class="cls-4" d="M159.64,111.67a.55.55,0,0,1-.55-.55V42.3a.55.55,0,1,1,1.09,0v68.82A.55.55,0,0,1,159.64,111.67Z"/><path class="cls-4" d="M147.92,107.91a.55.55,0,0,1-.55-.55V14a.55.55,0,0,1,.55-.54.54.54,0,0,1,.54.54v93.41A.54.54,0,0,1,147.92,107.91Z"/><path class="cls-4" d="M137.21,130.3a.55.55,0,0,1-.55-.55V48.62a.55.55,0,0,1,1.1,0v81.13A.55.55,0,0,1,137.21,130.3Z"/><path class="cls-4" d="M125.49,97.71a.55.55,0,0,1-.54-.55V35.54a.54.54,0,0,1,.54-.55.55.55,0,0,1,.55.55V97.16A.55.55,0,0,1,125.49,97.71Z"/><path class="cls-4" d="M113.78,83.43h0a.54.54,0,0,1-.55-.54V42.3a.54.54,0,0,1,.55-.55h0a.54.54,0,0,1,.54.55V82.89A.54.54,0,0,1,113.78,83.43Z"/><path class="cls-4" d="M102.06,103.3a.55.55,0,0,1-.55-.55V26.85a.55.55,0,0,1,1.1,0v75.9A.55.55,0,0,1,102.06,103.3Z"/><path class="cls-4" d="M90.34,87.91a.55.55,0,0,1-.54-.55V48.62a.54.54,0,0,1,.54-.55.55.55,0,0,1,.55.55V87.36A.55.55,0,0,1,90.34,87.91Z"/><polygon class="cls-5" points="105.09 84.98 117.37 91.84 128.21 84.98 127.5 74.76 105.09 84.98"/><polygon class="cls-6" points="102.7 69.22 110.48 82.89 121.75 83.27 118.22 68.94 102.7 69.22"/><polygon class="cls-3" points="106.56 76 118.22 68.94 102.7 69.22 106.56 76"/><polygon class="cls-3" points="159.22 31.86 135 39.6 137.62 48.92 159.22 31.86"/><polygon class="cls-3" points="124.08 49.61 126.47 61.21 137.62 48.92 135 39.6 124.08 49.61"/><polygon class="cls-3" points="73.3 60.3 92.46 57.91 90.41 61.21 73.3 60.3"/><polygon class="cls-3" points="102.7 69.22 105.09 63.25 92.46 57.91 90.41 61.21 102.7 69.22"/><polygon class="cls-7" points="124.08 49.61 105.09 63.25 102.7 69.22 118.22 68.94 126.47 61.21 124.08 49.61"/><polygon class="cls-5" points="73.3 60.3 92.46 66.44 90.41 61.21 73.3 60.3"/><polygon class="cls-5" points="102.7 69.22 100.2 75.54 92.46 66.44 90.41 61.21 102.7 69.22"/><polygon class="cls-8" points="105.09 84.98 100.2 75.54 102.7 69.22 110.48 82.89 105.09 84.98"/><polygon class="cls-8" points="126.47 61.21 118.22 68.94 120.49 78.14 127.5 75.29 126.47 61.21"/><polygon class="cls-5" points="159.22 31.86 141.18 49.98 137.62 48.92 159.22 31.86"/><polygon class="cls-5" points="126.47 61.21 137.62 48.92 141.18 49.98 134.58 61.89 126.47 61.21"/><polygon class="cls-3" points="128.21 84.98 131.7 129.75 145.5 84.98 128.21 84.98"/><polygon class="cls-3" points="115.63 93.96 96.56 120.35 124.08 149.16 112.22 118.83 128.21 104.58 115.63 93.96"/><polygon class="cls-8" points="174.24 71.78 175 67.42 141.18 49.98 134.58 61.89 131.7 84.98 145.5 84.98 150.66 78.87 162.03 78.65 167.26 71.22 174.24 71.78"/><polygon class="cls-5" points="126.47 61.21 134.58 61.89 131.7 84.98 128.21 84.98 126.47 61.21"/><polygon class="cls-9" points="167.26 71.22 140.65 57.95 162.03 78.65 167.26 71.22"/><polygon class="cls-9" points="150.66 78.87 134.58 61.89 131.7 84.98 145.5 84.98 150.66 78.87"/><polygon class="cls-8" points="145.5 84.98 133.95 66.92 131.7 84.98 145.5 84.98"/><polygon class="cls-4" points="117.37 91.84 115.63 93.96 128.21 104.58 129.68 103.84 129.16 97.16 117.37 91.84"/><polygon class="cls-7" points="128.21 84.98 117.37 91.84 129.16 97.16 128.21 84.98"/><polygon class="cls-5" points="115.63 93.96 118.9 106.4 112.22 118.83 128.21 104.58 115.63 93.96"/><polygon class="cls-5" points="112.22 118.83 105.08 120.46 124.08 149.16 112.22 118.83"/><polygon class="cls-5" points="131.7 84.98 136.86 97.16 131.7 129.75 145.5 84.98 131.7 84.98"/><polygon class="cls-3" points="73.82 62.79 72.9 63.45 71.6 62.24 73.27 60.3 73.82 62.79"/><polygon class="cls-3" points="158.65 34.36 159.57 35.02 160.87 33.8 159.21 31.86 158.65 34.36"/><polygon class="cls-3" points="117.37 91.84 110.48 82.89 105.09 84.98 117.37 91.84"/><polygon class="cls-3" points="127.5 75.29 131.7 84.98 128.21 84.98 127.5 75.29"/><polygon class="cls-10" points="111.8 153.71 117.36 152.58 113.29 148.24 111.8 153.71"/><path class="cls-3" d="M111.05,154.49l2-7.27,5.41,5.76Zm2.51-5.1-1,3.67,3.72-.76Z"/><polygon class="cls-10" points="129.27 139.77 131.52 148.95 138.48 141.9 129.27 139.77"/><path class="cls-3" d="M131.12,150l-2.69-11,11,2.54Zm-1.21-9.53,1.8,7.37,5.59-5.66Z"/></g></g></svg>