<svg xmlns="http://www.w3.org/2000/svg" xmlns:xlink="http://www.w3.org/1999/xlink" viewBox="0 0 197.67 155.48"><defs><style>.cls-1{fill:#c989eb;}.cls-2{fill:url(#radial-gradient);}.cls-3{fill:#fff;}.cls-4{fill:#323232;}.cls-5{fill:#4337c9;}.cls-6{fill:#8396f8;}.cls-7{fill:#a6b4ff;}.cls-8{fill:#212121;}.cls-9{fill:#6076fe;}.cls-10{fill:#d2d7f9;}</style><radialGradient id="radial-gradient" cx="83.22" cy="145.94" r="82.3" gradientUnits="userSpaceOnUse"><stop offset="0" stop-color="#a6b4ff"/><stop offset="1" stop-color="#fff" stop-opacity="0"/></radialGradient></defs><g id="Layer_2" data-name="Layer 2"><g id="Layer_1-2" data-name="Layer 1"><rect class="cls-1" x="99.29" width="34.61" height="66.32"/><rect class="cls-2" y="33.06" width="197.67" height="121.95"/><path class="cls-3" d="M95.29,146.15a11,11,0,0,1-4.56,8.91H77.89a11,11,0,1,1,17.4-8.91Z"/><path class="cls-4" d="M90.86,155.48H77.76l-.11-.08a11.4,11.4,0,0,1,6.66-20.65,11.23,11.23,0,0,1,4.33.86A11.39,11.39,0,0,1,91,155.4ZM78,154.65H90.59A10.57,10.57,0,0,0,92,138.91a10.79,10.79,0,0,0-3.69-2.54A10.57,10.57,0,0,0,78,154.65Z"/><path class="cls-4" d="M163,155.48h-131a.42.42,0,1,1,0-.83H163a.42.42,0,0,1,0,.83Z"/><path class="cls-5" d="M139,66.73a.41.41,0,0,1-.42-.41V36.69a.41.41,0,0,1,.42-.41.41.41,0,0,1,.41.41V66.32A.41.41,0,0,1,139,66.73Z"/><path class="cls-5" d="M59.82,66.73a.41.41,0,0,1-.42-.41V36.69a.41.41,0,0,1,.42-.41.41.41,0,0,1,.41.41V66.32A.41.41,0,0,1,59.82,66.73Z"/><path class="cls-5" d="M130.13,86.77a.41.41,0,0,1-.41-.42V24.61a.41.41,0,0,1,.41-.41.41.41,0,0,1,.42.41V86.35A.42.42,0,0,1,130.13,86.77Z"/><path class="cls-5" d="M121.24,107.47a.41.41,0,0,1-.42-.41V39.21a.41.41,0,0,1,.42-.41.41.41,0,0,1,.41.41v67.85A.41.41,0,0,1,121.24,107.47Z"/><path class="cls-5" d="M112.34,93a.41.41,0,0,1-.41-.42V24.74a.41.41,0,0,1,.41-.42.42.42,0,0,1,.42.42V92.58A.42.42,0,0,1,112.34,93Z"/><path class="cls-5" d="M104.21,121.51a.41.41,0,0,1-.41-.41V45.44a.41.41,0,0,1,.41-.41.41.41,0,0,1,.42.41V121.1A.41.41,0,0,1,104.21,121.51Z"/><path class="cls-5" d="M95.32,108.2a.42.42,0,0,1-.42-.42V32.55a.42.42,0,0,1,.42-.42.41.41,0,0,1,.41.42v75.23A.41.41,0,0,1,95.32,108.2Z"/><path class="cls-5" d="M86.42,112.76a.41.41,0,0,1-.41-.41V39.21a.41.41,0,0,1,.41-.41.41.41,0,0,1,.42.41v73.14A.41.41,0,0,1,86.42,112.76Z"/><path class="cls-5" d="M77.53,92.25a.42.42,0,0,1-.42-.42V24a.42.42,0,0,1,.42-.42.41.41,0,0,1,.41.42V91.83A.41.41,0,0,1,77.53,92.25Z"/><path class="cls-5" d="M68.63,107.47a.41.41,0,0,1-.41-.41V45.44a.42.42,0,0,1,.83,0v61.62A.41.41,0,0,1,68.63,107.47Z"/><polygon class="cls-6" points="86.31 36.49 86.31 86.71 94.44 84.41 98.45 90.65 106.03 86.71 114.49 86.71 118.09 90.65 117.05 36.49 86.31 36.49"/><polygon class="cls-7" points="94.44 84.41 90.67 35.6 90.67 87.14 94.44 84.41"/><polygon class="cls-7" points="114.49 86.71 112.66 37.7 110.68 36.49 106.03 86.71 114.49 86.71"/><polygon class="cls-8" points="86.31 36.49 91.91 50.71 111.45 50.71 117.05 36.49 86.31 36.49"/><polygon class="cls-7" points="105.84 29.7 97.51 29.7 97.34 31.19 106.03 31.19 105.84 29.7"/><polygon class="cls-9" points="97.51 29.7 86.31 36.49 93.67 41.5 96.23 41.24 97.51 29.7"/><polygon class="cls-9" points="105.84 29.7 117.05 36.49 109.68 41.5 107.13 41.24 105.84 29.7"/><polygon class="cls-5" points="106.03 31.19 97.34 31.19 102.06 41.5 106.8 38.32 106.03 31.19"/><polygon class="cls-6" points="96.47 39.09 102.06 41.5 97.34 31.19 96.47 39.09"/><polygon class="cls-10" points="97.07 17.67 97.51 29.7 100.16 31.99 104.15 31.99 104.97 22.02 97.07 17.67"/><polygon class="cls-4" points="97.29 22.93 104.97 22.02 97.07 17.67 97.29 22.93"/><polygon class="cls-4" points="86.31 36.49 84.31 72.19 91.91 50.71 86.31 36.49"/><polygon class="cls-4" points="117.05 36.49 119.05 72.19 111.45 50.71 117.05 36.49"/><polygon class="cls-4" points="91.91 50.71 94.44 64.93 111.45 50.71 91.91 50.71"/><polygon class="cls-9" points="109.74 61.73 94.44 64.93 111.45 50.71 109.74 61.73"/><polygon class="cls-4" points="103.8 121.1 94.44 64.93 105.84 67.34 103.8 121.1"/><polygon class="cls-5" points="105.31 62.46 94.44 64.93 95.21 69.56 102.94 71.78 105.84 67.34 105.31 62.46"/><polygon class="cls-9" points="102.94 71.78 105.55 75 105.84 67.34 102.94 71.78"/><polygon class="cls-4" points="103.8 62.75 111.84 91.96 115.25 60.54 103.8 62.75"/><polygon class="cls-8" points="106.11 62.31 111.08 69.72 111.84 91.96 115.25 60.54 106.11 62.31"/><polygon class="cls-4" points="85.77 72.98 85.65 73.74 84.45 73.78 84.31 72.06 85.77 72.98"/><polygon class="cls-4" points="117.63 72.99 117.79 73.73 118.99 73.72 119.05 72 117.63 72.99"/><path class="cls-4" d="M92.33,139.25l-.32-.34a10.79,10.79,0,0,0-3.69-2.54l-.42-.17.22-.41a2.75,2.75,0,0,1,5.17,1.31,2.81,2.81,0,0,1-.66,1.8Zm-3.22-3.44A11.87,11.87,0,0,1,92.25,138a1.83,1.83,0,0,0,.21-.87,1.92,1.92,0,0,0-1.92-1.92A2,2,0,0,0,89.11,135.81Z"/><path class="cls-4" d="M97.13,118.4a.76.76,0,0,1-.75-.37c-.44-.86,1.41-1.87,2-2.17s2.49-1.17,2.92-.31c.18.34,0,.74-.5,1.19a6.86,6.86,0,0,1-1.49,1A5.9,5.9,0,0,1,97.13,118.4Zm3.21-2.37a6.8,6.8,0,0,0-3,1.52,5.75,5.75,0,0,0,1.6-.58A5.66,5.66,0,0,0,100.34,116Z"/><path class="cls-4" d="M96.1,121a.47.47,0,0,1-.17,0,.42.42,0,0,1-.21-.55l1.31-3a.41.41,0,0,1,.76.33l-1.31,3A.42.42,0,0,1,96.1,121Z"/><path class="cls-4" d="M91.42,136.64a.42.42,0,0,1-.35-.19.41.41,0,0,1,.12-.57l3.34-2.17a.42.42,0,0,1,.57.12.43.43,0,0,1-.12.58l-3.34,2.16A.38.38,0,0,1,91.42,136.64Z"/><path class="cls-4" d="M99.92,134.72h-.09L96.56,134a.41.41,0,1,1,.18-.8l3.27.73a.42.42,0,0,1-.09.82Z"/><path class="cls-4" d="M96.68,125.88a.41.41,0,0,1-.4-.33l-.6-3.17a.41.41,0,1,1,.81-.16l.6,3.17a.42.42,0,0,1-.33.49Z"/><polygon class="cls-3" points="91.34 129.28 93.8 126.6 90.05 125.88 91.34 129.28"/><polygon class="cls-3" points="105.89 126.26 106.88 132.4 111.82 128.15 105.89 126.26"/><path class="cls-4" d="M91.12,130.06l-1.79-4.73,5.21,1Zm-.49-3.64.79,2.09,1.51-1.64Z"/><path class="cls-4" d="M106.52,133.2l-1.21-7.54,7.27,2.32Zm-.18-6.34.76,4.74,3.82-3.28Z"/></g></g></svg>