<svg xmlns="http://www.w3.org/2000/svg" xmlns:xlink="http://www.w3.org/1999/xlink" viewBox="0 0 212.59 167.35"><defs><style>.cls-1{fill:#c989eb;}.cls-2{fill:url(#radial-gradient);}.cls-3{fill:#4337c9;}.cls-4{fill:#323232;}.cls-5{fill:#fff;}.cls-6{fill:#8396f8;}.cls-7{fill:#a6b4ff;}.cls-8{fill:#6076fe;}.cls-9{fill:#d2d7f9;}.cls-10{fill:#212121;}</style><radialGradient id="radial-gradient" cx="109.34" cy="150.03" r="79.04" gradientUnits="userSpaceOnUse"><stop offset="0" stop-color="#a6b4ff"/><stop offset="1" stop-color="#fff" stop-opacity="0"/></radialGradient></defs><g id="Layer_2" data-name="Layer 2"><g id="Layer_1-2" data-name="Layer 1"><rect class="cls-1" x="71.1" width="37.57" height="122.75"/><rect class="cls-2" y="35.74" width="212.59" height="131.16"/><path class="cls-3" d="M145.2,122.75H63.81a.55.55,0,0,1-.55-.55.55.55,0,0,1,.55-.54H145.2a.54.54,0,0,1,.54.54A.55.55,0,0,1,145.2,122.75Z"/><path class="cls-3" d="M139.44,111.05H34.22a.55.55,0,0,1-.55-.55.54.54,0,0,1,.55-.54H139.44a.54.54,0,0,1,.54.54A.55.55,0,0,1,139.44,111.05Z"/><path class="cls-3" d="M154.33,99.34H54.81a.54.54,0,0,1-.54-.54.55.55,0,0,1,.54-.55h99.52a.55.55,0,0,1,.55.55A.54.54,0,0,1,154.33,99.34Z"/><path class="cls-3" d="M124,87.64H12.77a.55.55,0,0,1-.55-.54.55.55,0,0,1,.55-.55H124a.55.55,0,0,1,.55.55A.55.55,0,0,1,124,87.64Z"/><path class="cls-3" d="M145.2,75.94H45.67a.55.55,0,0,1,0-1.09H145.2a.55.55,0,0,1,0,1.09Z"/><path class="cls-3" d="M154.49,147.44H98a.54.54,0,0,1-.54-.54.55.55,0,0,1,.54-.55h56.5a.55.55,0,0,1,.55.55A.55.55,0,0,1,154.49,147.44Z"/><path class="cls-3" d="M151.24,135.74H51.72a.55.55,0,0,1,0-1.09h99.52a.55.55,0,1,1,0,1.09Z"/><path class="cls-4" d="M212.05,167.35H39.75a.55.55,0,0,1-.54-.55.54.54,0,0,1,.54-.54h172.3a.54.54,0,0,1,.54.54A.55.55,0,0,1,212.05,167.35Z"/><polygon class="cls-5" points="150.95 151.16 146.54 146.02 144.37 152.79 150.95 151.16"/><path class="cls-4" d="M143.62,153.52l2.76-8.63,5.63,6.55Zm3.2-6.44L145.25,152l4.77-1.18Z"/><polygon class="cls-5" points="131.88 140.67 125.78 150.57 137.99 150.57 131.88 140.67"/><polygon class="cls-6" points="122.6 55.82 50.52 87.1 46.33 95.51 75.32 87.1 89.89 95.51 104.6 94.11 113.3 100.62 163.99 69.48 122.6 55.82"/><polygon class="cls-7" points="75.32 87.1 46.33 95.51 128 61.02 75.32 87.1"/><path class="cls-7" d="M89.89,95.51c.7-1.48,44-28.45,44-28.45L104.6,94.11Z"/><polygon class="cls-7" points="113.3 100.62 142.71 67.68 123.9 94.11 113.3 100.62"/><polygon class="cls-8" points="140.27 89.69 122.6 55.82 163.99 69.48 151.52 87.1 140.27 89.69"/><polygon class="cls-9" points="134.93 69.48 140.27 89.69 151.52 87.1 150.59 72.04 134.93 69.48"/><polygon class="cls-4" points="136.82 76.64 150.59 72.04 134.93 69.48 136.82 76.64"/><polygon class="cls-4" points="122.6 55.82 98.03 50.71 124.31 74.31 122.6 55.82"/><polygon class="cls-4" points="105.24 89.69 98.03 50.71 111.17 68.38 105.24 89.69"/><polygon class="cls-10" points="162.67 116.36 152.22 113.66 152.83 107.13 160.97 96.28 162.67 116.36"/><polygon class="cls-10" points="124.31 74.31 111.17 68.38 98.03 50.71 124.31 74.31"/><polygon class="cls-4" points="157.48 153.64 124.31 74.31 140.27 89.69 152.83 107.13 157.48 153.64"/><polygon class="cls-4" points="163.99 69.48 167.71 129.61 180.26 99.55 163.99 69.48"/><polygon class="cls-10" points="180.26 99.55 165.46 93.32 167.71 129.61 180.26 99.55"/><polygon class="cls-10" points="124.31 74.31 140.27 89.69 122.6 55.82 124.31 74.31"/><polygon class="cls-3" points="160.58 94.11 160.97 96.28 152.83 107.13 134.46 98.59 132.59 94.11 160.58 94.11"/><polygon class="cls-8" points="152.83 107.13 143.45 94.11 132.59 94.11 134.46 98.59 152.83 107.13"/><polygon class="cls-4" points="163.99 69.48 160.58 94.11 151.52 87.1 163.99 69.48"/><polygon class="cls-10" points="160.58 94.11 143.45 94.11 140.27 89.69 151.52 87.1 160.58 94.11"/><polygon class="cls-10" points="143.45 94.11 140.27 89.69 132.59 94.11 143.45 94.11"/><path class="cls-4" d="M138.87,151H124.71l7.08-11.5ZM126.66,150h10.25l-5.12-8.33Z"/><polygon class="cls-5" points="164.07 161.33 169.62 160.2 165.56 155.87 164.07 161.33"/><path class="cls-4" d="M163.32,162.11l2-7.27,5.4,5.76Zm2.51-5.1-1,3.67,3.72-.76Z"/></g></g></svg>