<svg xmlns="http://www.w3.org/2000/svg" viewBox="0 0 34 34"><defs><style>.cls-1{fill:#fff;}.cls-2{fill:#4337c9;}.cls-3{fill:#8396f8;}.cls-4{fill:#d2d7f9;}.cls-5{fill:#5e77ff;}.cls-6{fill:#a6b4ff;}</style></defs><g id="Layer_2" data-name="Layer 2"><g id="Layer_1-2" data-name="Layer 1"><rect class="cls-1" width="34" height="34"/><rect class="cls-1" x="2" y="2" width="30" height="30" transform="translate(34) rotate(90)"/><g id="aWMbpw.tif"><path class="cls-2" d="M13.31,2h.47l.09.06a4.7,4.7,0,0,1,2.8,3.35.4.4,0,0,0,.24.22,4.22,4.22,0,0,1,2,1.11.45.45,0,0,0,.54.11L26,4.58A1.14,1.14,0,0,1,27,4.69a10.28,10.28,0,0,1,4.6,6.45c.16.62.24,1.26.36,1.89V26c0,.1-.05.21-.06.31a6.48,6.48,0,0,1-1.25,3.27A6.4,6.4,0,0,1,27,31.91a1.79,1.79,0,0,1-1.05,0L2.74,23.82A.93.93,0,0,1,2,22.77v-9a.91.91,0,0,1,.74-1l8.5-3a.38.38,0,0,0,.3-.36,4.33,4.33,0,0,1,2.69-3.5c.21-.09.44-.15.71-.25a9.13,9.13,0,0,0-.48-.88,2.91,2.91,0,0,0-1.25-1,.86.86,0,0,1-.54-.81.84.84,0,0,1,.55-.82Zm6.75,6.49a4.41,4.41,0,0,1-8.33,2.9L5.58,13.55l.33.13,11.82,4.1a1,1,0,0,1,.79,1.1v4.54a.89.89,0,1,0,1.76,0V20.1c0-.87.53-1.24,1.35-1,1.27.44,2.56.83,3.8,1.35a1.36,1.36,0,0,0,1.68-.34c2.48-2.36,3.71-5.11,2.83-8.56a8.62,8.62,0,0,0-3.4-5.13.43.43,0,0,0-.46-.06L22.33,7.72Zm-16.3,11c0,.88,0,1.73,0,2.58A.3.3,0,0,0,4,22.4L25.3,29.81l.25.07c0-.88,0-1.72,0-2.56A.3.3,0,0,0,25.3,27l-3.91-1.37a.46.46,0,0,0-.48.06,2.61,2.61,0,0,1-4-1.31.69.69,0,0,0-.49-.49L5.66,20.14Zm13-.18-13-4.52c0,.93,0,1.8,0,2.68,0,.08.13.2.23.23L16.46,22l.3.09ZM27.31,30a4.22,4.22,0,0,0,1.89-1.28,4.78,4.78,0,0,0,1-3.13c0-2,0-4,0-6,0-.06,0-.12,0-.22a11.67,11.67,0,0,1-2.69,2.78.49.49,0,0,0-.21.44V30ZM15.9,12.56a2.64,2.64,0,1,0-2.65-2.64A2.64,2.64,0,0,0,15.9,12.56Zm9.65,12.65c0-.92,0-1.79,0-2.65a.41.41,0,0,0-.22-.25l-2.26-.79-1-.37V24Z"/><path class="cls-3" d="M20.06,8.51l2.27-.79,3.75-1.31a.43.43,0,0,1,.46.06,8.62,8.62,0,0,1,3.4,5.13c.88,3.45-.35,6.2-2.83,8.56a1.36,1.36,0,0,1-1.68.34c-1.24-.52-2.53-.91-3.8-1.35-.82-.29-1.35.08-1.35,1v3.31a.89.89,0,1,1-1.76,0V18.88a1,1,0,0,0-.79-1.1L5.91,13.68l-.33-.13,6.15-2.14a4.41,4.41,0,0,0,8.33-2.9Zm6,2.12a.88.88,0,1,0-.84-.92A.9.9,0,0,0,26.1,10.63Zm-3.48,1.76a.88.88,0,1,0,.88.86A.88.88,0,0,0,22.62,12.39Zm5.57,1.47a.89.89,0,0,0-.86-.89.9.9,0,0,0-.9.86.88.88,0,1,0,1.76,0Zm-2.93,3.51a.89.89,0,0,0-.87-.88.88.88,0,1,0,.87.88Z"/><path class="cls-4" d="M3.76,19.49l1.9.65,10.77,3.73a.69.69,0,0,1,.49.49,2.61,2.61,0,0,0,4,1.31.46.46,0,0,1,.48-.06L25.3,27a.3.3,0,0,1,.26.34c0,.84,0,1.68,0,2.56l-.25-.07L4,22.4a.3.3,0,0,1-.24-.33C3.76,21.22,3.76,20.37,3.76,19.49Z"/><path class="cls-4" d="M16.76,19.31v2.81l-.3-.09L4,17.7c-.1,0-.23-.15-.23-.23,0-.88,0-1.75,0-2.68Z"/><path class="cls-5" d="M27.31,30V22.51a.49.49,0,0,1,.21-.44,11.67,11.67,0,0,0,2.69-2.78c0,.1,0,.16,0,.22,0,2,0,4,0,6a4.78,4.78,0,0,1-1,3.13A4.22,4.22,0,0,1,27.31,30Z"/><path class="cls-6" d="M15.9,12.56a2.64,2.64,0,1,1,2.62-2.63A2.64,2.64,0,0,1,15.9,12.56Z"/><path class="cls-4" d="M25.55,25.21,22,24V21.15l1,.37,2.26.79a.41.41,0,0,1,.22.25C25.56,23.42,25.55,24.29,25.55,25.21Z"/><path class="cls-2" d="M26.1,10.63A.88.88,0,1,1,27,9.8.9.9,0,0,1,26.1,10.63Z"/><path class="cls-2" d="M22.62,12.39a.88.88,0,1,1-.87.87A.88.88,0,0,1,22.62,12.39Z"/><path class="cls-2" d="M28.19,13.86a.88.88,0,1,1-.86-.89A.89.89,0,0,1,28.19,13.86Z"/><path class="cls-2" d="M25.26,17.37a.88.88,0,1,1-.87-.88A.89.89,0,0,1,25.26,17.37Z"/></g></g></g></svg>