<svg xmlns="http://www.w3.org/2000/svg" viewBox="0 0 34 34"><defs><style>.cls-1{fill:#fff;}.cls-2{fill:#8396f8;}.cls-3{fill:#4337c9;}.cls-4{fill:#d2d7f9;}</style></defs><g id="Layer_2" data-name="Layer 2"><g id="Layer_1-2" data-name="Layer 1"><rect class="cls-1" width="34" height="34"/><rect class="cls-1" x="2" y="2" width="30" height="30" transform="translate(34) rotate(90)"/><path class="cls-2" d="M19.41,4.18,9.54,17.31h7.09l-4.12,12a.44.44,0,0,0,.79.39l11.16-16.5H17L20.19,4.6A.45.45,0,0,0,19.41,4.18Z"/><path class="cls-3" d="M12.32,31.85a1.29,1.29,0,0,1-.54-.12,1.17,1.17,0,0,1-.59-1.45l4.14-12H9.62a1,1,0,0,1-.86-.53,1,1,0,0,1,.09-1L19.42,2.62a1.18,1.18,0,0,1,1.52-.32,1.17,1.17,0,0,1,.54,1.45l-3.16,8.5h6.06a1,1,0,0,1,.8,1.5L13.29,31.33A1.16,1.16,0,0,1,12.32,31.85Zm-.94-15.46h6.53L14.54,26.2l8.18-12.11h-7l2.52-6.76Z"/><polygon class="cls-4" points="18.11 7.53 15.85 13.82 22.71 14 16.41 23.4 20.97 14.9 14.66 14.46 18.11 7.53"/></g></g></svg>